<?xml version="1.0" encoding="UTF-8" standalone="no"?>
<svg
   xmlns:dc="http://purl.org/dc/elements/1.1/"
   xmlns:cc="http://creativecommons.org/ns#"
   xmlns:rdf="http://www.w3.org/1999/02/22-rdf-syntax-ns#"
   xmlns:svg="http://www.w3.org/2000/svg"
   xmlns="http://www.w3.org/2000/svg"
   xmlns:sodipodi="http://sodipodi.sourceforge.net/DTD/sodipodi-0.dtd"
   xmlns:inkscape="http://www.inkscape.org/namespaces/inkscape"
   width="3840"
   height="2160"
   viewBox="0 0 1016 571.50002"
   version="1.1"
   id="svg867"
   inkscape:version="1.0.2 (e86c8708, 2021-01-15)"
   sodipodi:docname="MacOS-16_9.svg"
   inkscape:export-filename="/Users/parsarch/dotfiles/BG/MacOS/MacOS-16_9.png"
   inkscape:export-xdpi="96.309998"
   inkscape:export-ydpi="96.309998">
  <defs
     id="defs861" />
  <sodipodi:namedview
     id="base"
     pagecolor="#ffffff"
     bordercolor="#666666"
     borderopacity="1.0"
     inkscape:pageopacity="0.0"
     inkscape:pageshadow="2"
     inkscape:zoom="0.057249329"
     inkscape:cx="431.21509"
     inkscape:cy="2078.9949"
     inkscape:document-units="mm"
     inkscape:current-layer="layer1"
     inkscape:document-rotation="0"
     showgrid="false"
     units="px"
     showguides="true"
     inkscape:snap-bbox="true"
     inkscape:snap-bbox-midpoints="true"
     inkscape:snap-bbox-edge-midpoints="true"
     inkscape:bbox-paths="false"
     inkscape:bbox-nodes="true"
     inkscape:snap-page="true"
     inkscape:snap-global="false"
     inkscape:window-width="1024"
     inkscape:window-height="715"
     inkscape:window-x="20"
     inkscape:window-y="54"
     inkscape:window-maximized="0"
     inkscape:object-paths="true"
     inkscape:snap-intersection-paths="true"
     inkscape:snap-nodes="true"
     inkscape:snap-smooth-nodes="true"
     inkscape:snap-midpoints="true"
     inkscape:guide-bbox="true" />
  <metadata
     id="metadata864">
    <rdf:RDF>
      <cc:Work
         rdf:about="">
        <dc:format>image/svg+xml</dc:format>
        <dc:type
           rdf:resource="http://purl.org/dc/dcmitype/StillImage" />
        <dc:title />
      </cc:Work>
    </rdf:RDF>
  </metadata>
  <g
     inkscape:label="Layer 1"
     inkscape:groupmode="layer"
     id="layer1">
    <rect
       style="fill:#2e3440;fill-opacity:1;stroke:none;stroke-width:3.18753;stroke-miterlimit:4;stroke-dasharray:none;stop-color:#000000"
       id="rect1430"
       width="1016"
       height="571.5"
       x="-7.7271523e-14"
       y="0" />
    <g
       id="g1548"
       transform="matrix(2.1725017,0,0,2.1761782,-0.37722156,-1251.06)">
      <g
         inkscape:label="Layer 1"
         id="layer1-6">
        <g
           id="g941"
           transform="matrix(0.76073868,0,0,0.76073868,129.64772,-9.3679719e-7)" />
        <g
           id="g931"
           transform="matrix(0.74536248,0,0,0.74536248,-0.09009816,103.4795)">
          <path
             style="fill:#b48ead;fill-opacity:1;stroke:#000000;stroke-width:0;stroke-linecap:butt;stroke-linejoin:miter;stroke-miterlimit:4;stroke-dasharray:none;stroke-opacity:1"
             d="M 0.35381161,984.81979 V 758.29205 L 227.11269,984.81979 Z"
             id="path37-3-6-7-5-3-5-6"
             inkscape:export-filename="/home/parsarch/Pictures/bg.png"
             inkscape:export-xdpi="96"
             inkscape:export-ydpi="96" />
          <path
             style="fill:#5e81ac;fill-opacity:1;stroke:#000000;stroke-width:0;stroke-linecap:butt;stroke-linejoin:miter;stroke-miterlimit:4;stroke-dasharray:none;stroke-opacity:1"
             d="M 0.35383161,984.81978 V 783.19657 L 202.18274,984.81978 Z"
             id="path37-3-6-7-5-3-2"
             inkscape:export-filename="/home/parsarch/Pictures/bg.png"
             inkscape:export-xdpi="96"
             inkscape:export-ydpi="96" />
          <path
             style="fill:#8fbcbb;fill-opacity:1;stroke:#000000;stroke-width:0;stroke-linecap:butt;stroke-linejoin:miter;stroke-miterlimit:4;stroke-dasharray:none;stroke-opacity:1"
             d="M 0.35383161,984.81979 V 806.54923 L 178.80626,984.81979 Z"
             id="path37-3-6-7-5-9"
             inkscape:export-filename="/home/parsarch/Pictures/bg.png"
             inkscape:export-xdpi="96"
             inkscape:export-ydpi="96" />
          <path
             style="fill:#a3be8c;fill-opacity:1;stroke:#000000;stroke-width:0;stroke-linecap:butt;stroke-linejoin:miter;stroke-miterlimit:4;stroke-dasharray:none;stroke-opacity:1"
             d="M 0.35383161,984.81979 V 828.62602 L 156.70696,984.81979 Z"
             id="path37-3-6-7-1"
             inkscape:export-filename="/home/parsarch/Pictures/bg.png"
             inkscape:export-xdpi="96"
             inkscape:export-ydpi="96" />
          <path
             style="fill:#ebcb8b;fill-opacity:1;stroke:#000000;stroke-width:0;stroke-linecap:butt;stroke-linejoin:miter;stroke-miterlimit:4;stroke-dasharray:none;stroke-opacity:1"
             d="M 0.35383161,984.81979 V 851.3641 L 133.9457,984.81979 Z"
             id="path37-3-6-2"
             inkscape:export-filename="/home/parsarch/Pictures/bg.png"
             inkscape:export-xdpi="96"
             inkscape:export-ydpi="96" />
          <path
             style="fill:#d08770;fill-opacity:1;stroke:#000000;stroke-width:0;stroke-linecap:butt;stroke-linejoin:miter;stroke-miterlimit:4;stroke-dasharray:none;stroke-opacity:1"
             d="M 0.35383161,984.81979 V 872.97275 L 112.315,984.81979 Z"
             id="path37-3-7"
             inkscape:export-filename="/home/parsarch/Pictures/bg.png"
             inkscape:export-xdpi="96"
             inkscape:export-ydpi="96" />
          <a
             id="a919"
             transform="translate(-0.0530056)">
            <path
               style="fill:#bf616a;fill-opacity:1;stroke:#000000;stroke-width:0;stroke-linecap:butt;stroke-linejoin:miter;stroke-miterlimit:4;stroke-dasharray:none;stroke-opacity:1"
               d="M 0.35383161,984.81979 V 895.63158 L 89.633051,984.81979 Z"
               id="path37-0"
               inkscape:export-filename="/home/parsarch/Pictures/path37.png"
               inkscape:export-xdpi="96"
               inkscape:export-ydpi="96" />
          </a>
          <path
             style="fill:#2e3440;fill-opacity:1;stroke:#000000;stroke-width:0;stroke-linecap:butt;stroke-linejoin:miter;stroke-miterlimit:4;stroke-dasharray:none;stroke-opacity:1"
             d="M 0.35383161,984.8146 0.30082601,918.72336 66.158694,984.81979 Z"
             id="path37-36-7"
             inkscape:export-filename="/home/parsarch/Pictures/path37.png"
             inkscape:export-xdpi="96"
             inkscape:export-ydpi="96"
             sodipodi:nodetypes="cccc" />
        </g>
      </g>
      <g
         id="layer2"
         inkscape:label="Layer 2" />
    </g>
    <ellipse
       style="opacity:1;fill:#3b4252;fill-opacity:1;stroke:#4c566a;stroke-width:7.78737;stroke-linejoin:miter;stroke-miterlimit:4;stroke-dasharray:none;stroke-opacity:1;paint-order:normal"
       id="path5985"
       cx="507.99997"
       cy="285.75"
       rx="136.34242"
       ry="136.2169"
       inkscape:export-filename="/home/parsarch/Pictures/bg.png"
       inkscape:export-xdpi="96"
       inkscape:export-ydpi="96" />
    <path
       d="m -467.01681,43.193593 c -8.33713,20.49108 -13.36569,33.89461 -22.64793,53.77655 5.69117,6.047657 12.67685,13.090427 24.0216,21.044527 -12.1967,-5.0313 -20.51635,-10.08261 -26.7338,-15.32436 -11.87954,24.85 -30.49141,60.24766 -68.26098,128.27986 29.68563,-17.18042 52.69732,-27.77237 74.14315,-31.81397 -0.92091,-3.97053 -1.44448,-8.26547 -1.40889,-12.74679 l 0.0351,-0.95335 c 0.47103,-19.06587 10.36455,-33.72753 22.08442,-32.732 11.71983,0.99549 20.82956,17.26773 20.35851,36.3336 -0.0884,3.58759 -0.49226,7.03882 -1.19757,10.2398 21.21298,4.15987 43.9786,14.7247 73.26255,31.67271 -5.77424,-10.65705 -10.92822,-20.26363 -15.85008,-29.41291 -7.75276,-6.02377 -15.83925,-13.86373 -32.33414,-22.35099 11.33763,2.9533 19.45526,6.36057 25.78276,10.16915 -50.04203,-93.400237 -54.09436,-105.811217 -71.25485,-146.181827 z"
       fill="#1793d1"
       id="path6053"
       style="fill:#81a1c1;fill-opacity:1;stroke-width:0.732524"
       inkscape:export-filename="/home/parsarch/Pictures/bg.png"
       inkscape:export-xdpi="96"
       inkscape:export-ydpi="96" />
    <g
       id="g1588"
       transform="matrix(-2.1758921,0,0,-2.1725018,1016.3778,1819.5294)">
      <g
         inkscape:label="Layer 1"
         id="g1584">
        <g
           id="g1562"
           transform="matrix(0.76073868,0,0,0.76073868,129.64772,-9.3679719e-7)" />
        <g
           id="g1582"
           transform="matrix(0.74536248,0,0,0.74536248,-0.09009816,103.4795)">
          <path
             style="fill:#b48ead;fill-opacity:1;stroke:#000000;stroke-width:0;stroke-linecap:butt;stroke-linejoin:miter;stroke-miterlimit:4;stroke-dasharray:none;stroke-opacity:1"
             d="M 0.35381161,984.81979 V 758.29205 L 227.11269,984.81979 Z"
             id="path1564"
             inkscape:export-filename="/home/parsarch/Pictures/bg.png"
             inkscape:export-xdpi="96"
             inkscape:export-ydpi="96" />
          <path
             style="fill:#5e81ac;fill-opacity:1;stroke:#000000;stroke-width:0;stroke-linecap:butt;stroke-linejoin:miter;stroke-miterlimit:4;stroke-dasharray:none;stroke-opacity:1"
             d="M 0.35383161,984.81978 V 783.19657 L 202.18274,984.81978 Z"
             id="path1566"
             inkscape:export-filename="/home/parsarch/Pictures/bg.png"
             inkscape:export-xdpi="96"
             inkscape:export-ydpi="96" />
          <path
             style="fill:#8fbcbb;fill-opacity:1;stroke:#000000;stroke-width:0;stroke-linecap:butt;stroke-linejoin:miter;stroke-miterlimit:4;stroke-dasharray:none;stroke-opacity:1"
             d="M 0.35383161,984.81979 V 806.54923 L 178.80626,984.81979 Z"
             id="path1568"
             inkscape:export-filename="/home/parsarch/Pictures/bg.png"
             inkscape:export-xdpi="96"
             inkscape:export-ydpi="96" />
          <path
             style="fill:#a3be8c;fill-opacity:1;stroke:#000000;stroke-width:0;stroke-linecap:butt;stroke-linejoin:miter;stroke-miterlimit:4;stroke-dasharray:none;stroke-opacity:1"
             d="M 0.35383161,984.81979 V 828.62602 L 156.70696,984.81979 Z"
             id="path1570"
             inkscape:export-filename="/home/parsarch/Pictures/bg.png"
             inkscape:export-xdpi="96"
             inkscape:export-ydpi="96" />
          <path
             style="fill:#ebcb8b;fill-opacity:1;stroke:#000000;stroke-width:0;stroke-linecap:butt;stroke-linejoin:miter;stroke-miterlimit:4;stroke-dasharray:none;stroke-opacity:1"
             d="M 0.35383161,984.81979 V 851.3641 L 133.9457,984.81979 Z"
             id="path1572"
             inkscape:export-filename="/home/parsarch/Pictures/bg.png"
             inkscape:export-xdpi="96"
             inkscape:export-ydpi="96" />
          <path
             style="fill:#d08770;fill-opacity:1;stroke:#000000;stroke-width:0;stroke-linecap:butt;stroke-linejoin:miter;stroke-miterlimit:4;stroke-dasharray:none;stroke-opacity:1"
             d="M 0.35383161,984.81979 V 872.97275 L 112.315,984.81979 Z"
             id="path1574"
             inkscape:export-filename="/home/parsarch/Pictures/bg.png"
             inkscape:export-xdpi="96"
             inkscape:export-ydpi="96" />
          <a
             id="a1578"
             transform="translate(-0.0530056)">
            <path
               style="fill:#bf616a;fill-opacity:1;stroke:#000000;stroke-width:0;stroke-linecap:butt;stroke-linejoin:miter;stroke-miterlimit:4;stroke-dasharray:none;stroke-opacity:1"
               d="M 0.35383161,984.81979 V 895.63158 L 89.633051,984.81979 Z"
               id="path1576"
               inkscape:export-filename="/home/parsarch/Pictures/path37.png"
               inkscape:export-xdpi="96"
               inkscape:export-ydpi="96" />
          </a>
          <path
             style="fill:#2e3440;fill-opacity:1;stroke:#000000;stroke-width:0;stroke-linecap:butt;stroke-linejoin:miter;stroke-miterlimit:4;stroke-dasharray:none;stroke-opacity:1"
             d="M 2.5369211e-6,984.8146 0.30082601,918.72336 66.158694,984.8146 Z"
             id="path1580"
             inkscape:export-filename="/home/parsarch/Pictures/path37.png"
             inkscape:export-xdpi="96"
             inkscape:export-ydpi="96"
             sodipodi:nodetypes="cccc" />
        </g>
      </g>
      <g
         id="g1586"
         inkscape:label="Layer 2" />
    </g>
    <g
       id="g1866"
       style="stroke-width:3.96875;stroke-miterlimit:4;stroke-dasharray:none;stroke:#2e3440;stroke-opacity:1">
      <path
         style="fill:none;stroke:#2e3440;stroke-width:3.96875;stroke-linecap:butt;stroke-linejoin:miter;stroke-opacity:1;stroke-miterlimit:4;stroke-dasharray:none"
         d="M -50.591764,376.42716 195.13756,621.90599 Z"
         id="path1753" />
      <path
         style="fill:none;stroke:#2e3440;stroke-width:3.96875;stroke-linecap:butt;stroke-linejoin:miter;stroke-opacity:1;stroke-miterlimit:4;stroke-dasharray:none"
         d="M -32.110256,358.05038 213.61907,603.52922 Z"
         id="path1753-6" />
      <path
         style="fill:none;stroke:#2e3440;stroke-width:3.96875;stroke-linecap:butt;stroke-linejoin:miter;stroke-opacity:1;stroke-miterlimit:4;stroke-dasharray:none"
         d="M -14.567308,340.52532 231.16202,586.00416 Z"
         id="path1753-0" />
      <path
         style="fill:none;stroke:#2e3440;stroke-width:3.96875;stroke-linecap:butt;stroke-linejoin:miter;stroke-opacity:1;stroke-miterlimit:4;stroke-dasharray:none"
         d="M -50.435502,267.8116 303.94992,621.83577 Z"
         id="path1753-62" />
      <path
         style="fill:none;stroke:#2e3440;stroke-width:3.96875;stroke-linecap:butt;stroke-linejoin:miter;stroke-opacity:1;stroke-miterlimit:4;stroke-dasharray:none"
         d="M -50.412358,232.02527 339.77276,621.81263 Z"
         id="path1753-61" />
      <path
         style="fill:none;stroke:#2e3440;stroke-width:3.96875;stroke-linecap:butt;stroke-linejoin:miter;stroke-opacity:1;stroke-miterlimit:4;stroke-dasharray:none"
         d="M -50.387872,194.17074 377.6659,621.78816 Z"
         id="path1753-8" />
    </g>
    <g
       id="g1858"
       style="stroke:#2e3440;stroke-opacity:1;stroke-width:3.96875;stroke-miterlimit:4;stroke-dasharray:none">
      <path
         style="fill:none;stroke:#2e3440;stroke-width:3.96875;stroke-linecap:butt;stroke-linejoin:miter;stroke-opacity:1;stroke-miterlimit:4;stroke-dasharray:none"
         d="M 639.66238,-48.899362 1064.3697,375.37514 Z"
         id="path1753-7-9" />
      <path
         style="fill:none;stroke:#2e3440;stroke-width:3.96875;stroke-linecap:butt;stroke-linejoin:miter;stroke-opacity:1;stroke-miterlimit:4;stroke-dasharray:none"
         d="M 641.0468,-85.245633 1100.8389,374.07782 Z"
         id="path1753-7-2" />
      <path
         style="fill:none;stroke:#2e3440;stroke-width:3.96875;stroke-linecap:butt;stroke-linejoin:miter;stroke-opacity:1;stroke-miterlimit:4;stroke-dasharray:none"
         d="M 658.93948,-103.20584 1118.7316,356.11763 Z"
         id="path1753-7-0" />
      <path
         style="fill:none;stroke:#2e3440;stroke-width:3.96875;stroke-linecap:butt;stroke-linejoin:miter;stroke-opacity:1;stroke-miterlimit:4;stroke-dasharray:none"
         d="M 694.88149,-139.11119 1154.6736,320.21227 Z"
         id="path1753-7-23" />
      <path
         style="fill:none;stroke:#2e3440;stroke-width:3.96875;stroke-linecap:butt;stroke-linejoin:miter;stroke-opacity:1;stroke-miterlimit:4;stroke-dasharray:none"
         d="M 713.33175,-157.45693 1173.1239,301.86653 Z"
         id="path1753-7-7" />
      <path
         style="fill:none;stroke:#2e3440;stroke-width:3.96875;stroke-linecap:butt;stroke-linejoin:miter;stroke-opacity:1;stroke-miterlimit:4;stroke-dasharray:none"
         d="M 677.36815,-121.61574 1137.1603,337.70772 Z"
         id="path1753-7-92" />
    </g>
    <path
       d="m 561.31065,282.12978 c 0.28138,30.29987 26.58101,40.3829 26.87237,40.5116 -0.22239,0.71112 -4.20225,14.36932 -13.8559,28.47725 -8.34517,12.19705 -17.00632,24.3494 -30.65022,24.60107 -13.40653,0.24703 -17.71747,-7.95009 -33.0449,-7.95009 -15.32278,0 -20.11244,7.6984 -32.80318,8.19712 -13.16985,0.49838 -23.19852,-13.18947 -31.61305,-25.34183 -17.19403,-24.85803 -30.33384,-70.24299 -12.69039,-100.87859 8.76488,-15.21374 24.42838,-24.84773 41.4297,-25.09478 12.93244,-0.24669 25.13914,8.70052 33.04489,8.70052 7.90075,0 22.73449,-10.75979 38.32863,-9.17958 6.52822,0.27171 24.85311,2.63704 36.62001,19.86072 -0.94811,0.58778 -21.86534,12.76477 -21.63796,38.09661 m -25.19596,-74.40312 c 6.99196,-8.46346 11.69794,-20.24542 10.41409,-31.96838 -10.07837,0.40506 -22.26539,6.71595 -29.49439,15.17479 -6.47856,7.49066 -12.15233,19.47999 -10.62144,30.97092 11.23354,0.86913 22.70945,-5.70845 29.70174,-14.17731"
       fill="#000000"
       id="path567"
       style="fill:#eceff4;fill-opacity:1;stroke-width:0.636835" />
    <path
       d="m 479.45446,-302.88462 c 0.28138,30.30011 26.5812,40.38324 26.87256,40.51196 -0.22239,0.7111 -4.20227,14.36941 -13.85599,28.47749 -8.34525,12.19713 -17.0065,24.34956 -30.6505,24.60127 -13.40659,0.24702 -17.71757,-7.95017 -33.04515,-7.95017 -15.32291,0 -20.11259,7.69845 -32.80344,8.19719 -13.16993,0.49836 -23.19872,-13.1896 -31.6133,-25.34202 -17.19417,-24.85827 -30.33406,-70.2436 -12.6905,-100.87943 8.76495,-15.21387 24.42859,-24.84794 41.43004,-25.09499 12.93254,-0.24668 25.13932,8.7006 33.04515,8.7006 7.90082,0 22.73465,-10.75991 38.32894,-9.17966 6.52828,0.2717 24.8533,2.63707 36.62032,19.86089 -0.94813,0.58777 -21.86555,12.76486 -21.63813,38.09691"
       fill="#000000"
       id="path465"
       style="fill:#2e3440;fill-opacity:1;stroke-width:0.63684"
       sodipodi:nodetypes="ccccsccccsccc" />
    <path
       d="m 48.64988,-131.71766 c 0.25602,27.56958 24.18581,36.744064 24.45091,36.861174 -0.20236,0.64702 -3.82357,13.07449 -12.60735,25.9112 -7.59319,11.09797 -15.47392,22.15528 -27.88838,22.38429 -12.19845,0.22478 -16.12093,-7.23372 -30.0672397,-7.23372 -13.9420753,0 -18.3001253,7.0047 -29.8473253,7.4585 -11.98311,0.45344 -21.10814,-12.001 -28.76441,-23.0583 -15.644705,-22.61814 -27.600475,-63.913514 -11.546885,-91.788554 7.97508,-13.84286 22.227155,-22.60875 37.696505,-22.83353 11.76711,-0.22446 22.8738703,7.91653 30.06723531,7.91653 7.18883999,0 20.68590969,-9.79026 34.87488969,-8.35243 5.93998,0.24722 22.61362,2.39942 33.32024,18.0711 -0.86269,0.53481 -19.8951,11.61455 -19.68819,34.66377"
       fill="#000000"
       id="path465-9"
       style="fill:#eceff4;fill-opacity:1;stroke-width:0.57945"
       sodipodi:nodetypes="ccccsccccsccc" />
  </g>
</svg>
